<svg width="276" height="309" viewBox="0 0 276 309" fill="none" xmlns="http://www.w3.org/2000/svg">
<path d="M-4.75026 172.293L101.014 172.293L101.014 279.649C101.014 295.822 114.11 309 130.33 309L246.066 309C262.22 309 275.382 295.888 275.382 279.649L275.382 221.944L230.244 221.944L230.244 263.808L146.218 263.808L146.218 46.0353L183.312 46.0353L183.312 0.843467L101.08 0.84346L101.08 127.101L11.1377 127.101L11.1377 46.0353L56.1423 46.0353L56.1423 0.843456L-4.68375 0.843451C-20.8376 0.843449 -34 13.9551 -34 30.1949L-34 142.942C-34 159.115 -20.9041 172.293 -4.75026 172.293Z" fill="#247CFF"/>
</svg>
